<svg width="28" height="28" viewBox="0 0 28 28" fill="none" xmlns="http://www.w3.org/2000/svg">
<rect x="9.33301" y="9.3335" width="9.33333" height="9.33333" fill="white"/>
<path fill-rule="evenodd" clip-rule="evenodd" d="M17.9878 6.58347C17.8269 6.32638 17.5898 6.12585 17.3096 6.0098C17.0294 5.89374 16.72 5.86794 16.4244 5.93597L14.3268 6.4178C14.1118 6.46721 13.8884 6.46721 13.6734 6.4178L11.5758 5.93597C11.2802 5.86794 10.9708 5.89374 10.6906 6.0098C10.4104 6.12585 10.1733 6.32638 10.0124 6.58347L8.8691 8.40814C8.75244 8.5948 8.59494 8.7523 8.40827 8.87014L6.5836 10.0135C6.32696 10.1742 6.12672 10.4109 6.01069 10.6906C5.89466 10.9703 5.86859 11.2793 5.9361 11.5745L6.41794 13.6745C6.46717 13.8891 6.46717 14.112 6.41794 14.3266L5.9361 16.4255C5.86833 16.7209 5.89427 17.03 6.01031 17.31C6.12635 17.59 6.32673 17.8268 6.5836 17.9876L8.40827 19.131C8.59494 19.2476 8.75244 19.4051 8.87027 19.5918L10.0136 21.4165C10.3426 21.9426 10.9703 22.2028 11.5758 22.064L13.6734 21.5821C13.8884 21.5327 14.1118 21.5327 14.3268 21.5821L16.4256 22.064C16.721 22.1317 17.0302 22.1058 17.3101 21.9898C17.5901 21.8737 17.8269 21.6733 17.9878 21.4165L19.1311 19.5918C19.2478 19.4051 19.4053 19.2476 19.5919 19.131L21.4178 17.9876C21.6746 17.8266 21.8749 17.5895 21.9908 17.3093C22.1066 17.0291 22.1323 16.7197 22.0641 16.4243L21.5834 14.3266C21.534 14.1117 21.534 13.8883 21.5834 13.6733L22.0653 11.5745C22.1332 11.2792 22.1074 10.9701 21.9916 10.6902C21.8757 10.4102 21.6756 10.1733 21.4189 10.0123L19.5931 8.86897C19.4067 8.75209 19.2492 8.59454 19.1323 8.40814L17.9878 6.58347ZM17.4009 11.3983C17.4731 11.2656 17.491 11.1101 17.4508 10.9645C17.4106 10.8189 17.3156 10.6946 17.1856 10.6176C17.0556 10.5407 16.9009 10.5172 16.7539 10.552C16.6069 10.5869 16.4792 10.6774 16.3976 10.8045L13.3468 15.9681L11.5046 14.2041C11.45 14.148 11.3846 14.1035 11.3123 14.0732C11.2401 14.0429 11.1625 14.0275 11.0842 14.0278C11.0058 14.0281 10.9284 14.0443 10.8564 14.0752C10.7844 14.1061 10.7194 14.1512 10.6653 14.2078C10.6111 14.2644 10.5689 14.3313 10.5412 14.4046C10.5134 14.4778 10.5007 14.5559 10.5038 14.6342C10.5069 14.7124 10.5258 14.7893 10.5592 14.8601C10.5926 14.931 10.64 14.9943 10.6984 15.0465L13.0714 17.3203C13.1349 17.381 13.2114 17.4266 13.295 17.4537C13.3786 17.4807 13.4672 17.4886 13.5543 17.4766C13.6413 17.4646 13.7245 17.433 13.7977 17.3844C13.8708 17.3357 13.9321 17.2711 13.9768 17.1955L17.4009 11.3983Z" fill="#0D99FF"/>
</svg>
