<svg width="44" height="44" viewBox="0 0 44 44" fill="none" xmlns="http://www.w3.org/2000/svg">
<path d="M11 34.8333H17.7686V25.5255C17.7686 25.1063 17.911 24.7549 18.1958 24.4713C18.4793 24.1865 18.8307 24.0442 19.25 24.0442H24.75C25.1692 24.0442 25.5212 24.1865 25.806 24.4713C26.0895 24.7549 26.2313 25.1063 26.2313 25.5255V34.8333H33V18.898C33 18.7098 32.959 18.5387 32.8771 18.3847C32.7952 18.2307 32.6834 18.0962 32.5416 17.9813L22.671 10.5416C22.4827 10.3779 22.2591 10.296 22 10.296C21.7408 10.296 21.5178 10.3779 21.3308 10.5416L11.4583 17.9813C11.3177 18.0987 11.2059 18.2331 11.1228 18.3847C11.0397 18.5362 10.9987 18.7073 11 18.898V34.8333ZM9.16663 34.8333V18.898C9.16663 18.4287 9.27174 17.9844 9.48196 17.5652C9.69218 17.1459 9.98185 16.8007 10.351 16.5293L20.2235 9.05298C20.7405 8.65821 21.3308 8.46082 21.9945 8.46082C22.6581 8.46082 23.2521 8.65821 23.7765 9.05298L33.649 16.5275C34.0193 16.7988 34.309 17.1447 34.518 17.5652C34.7282 17.9844 34.8333 18.4287 34.8333 18.898V34.8333C34.8333 35.3247 34.6506 35.753 34.2851 36.1185C33.9197 36.4839 33.4913 36.6667 33 36.6667H25.8793C25.4588 36.6667 25.1068 36.5249 24.8233 36.2413C24.5397 35.9565 24.398 35.6045 24.398 35.1853V25.8793H19.602V35.1853C19.602 35.6058 19.4602 35.9578 19.1766 36.2413C18.8931 36.5249 18.5417 36.6667 18.1225 36.6667H11C10.5086 36.6667 10.0802 36.4839 9.71479 36.1185C9.34935 35.753 9.16663 35.3247 9.16663 34.8333Z" fill="white"/>
</svg>
