<svg width="20" height="25" viewBox="0 0 20 25" fill="none" xmlns="http://www.w3.org/2000/svg">
<path d="M7.95833 7.5H14.9583C17.625 7.5 19.7917 9.66667 19.7917 12.3333V19.3333C19.7917 20.6152 19.2824 21.8446 18.376 22.751C17.4696 23.6574 16.2402 24.1667 14.9583 24.1667H7.95833C5.29167 24.1667 3.125 22 3.125 19.3333V12.3333C3.125 11.0515 3.63422 9.82208 4.54065 8.91565C5.44708 8.00922 6.67645 7.5 7.95833 7.5ZM7.79166 9.16667C6.99602 9.16667 6.23295 9.48274 5.67035 10.0453C5.10774 10.608 4.79167 11.371 4.79167 12.1667V19.5C4.79167 21.1583 6.13333 22.5 7.79166 22.5H15.125C15.9206 22.5 16.6837 22.1839 17.2463 21.6213C17.8089 21.0587 18.125 20.2956 18.125 19.5V12.1667C18.125 10.5083 16.7833 9.16667 15.125 9.16667H7.79166ZM15.8333 10.4167C16.1096 10.4167 16.3745 10.5264 16.5699 10.7218C16.7652 10.9171 16.875 11.1821 16.875 11.4583C16.875 11.7346 16.7652 11.9996 16.5699 12.1949C16.3745 12.3903 16.1096 12.5 15.8333 12.5C15.5571 12.5 15.2921 12.3903 15.0968 12.1949C14.9014 11.9996 14.7917 11.7346 14.7917 11.4583C14.7917 11.1821 14.9014 10.9171 15.0968 10.7218C15.2921 10.5264 15.5571 10.4167 15.8333 10.4167ZM11.4583 11.6667C12.5634 11.6667 13.6232 12.1057 14.4046 12.8871C15.186 13.6685 15.625 14.7283 15.625 15.8333C15.625 16.9384 15.186 17.9982 14.4046 18.7796C13.6232 19.561 12.5634 20 11.4583 20C10.3533 20 9.29345 19.561 8.51205 18.7796C7.73065 17.9982 7.29167 16.9384 7.29167 15.8333C7.29167 14.7283 7.73065 13.6685 8.51205 12.8871C9.29345 12.1057 10.3533 11.6667 11.4583 11.6667ZM11.4583 13.3333C10.7953 13.3333 10.1594 13.5967 9.69056 14.0656C9.22172 14.5344 8.95833 15.1703 8.95833 15.8333C8.95833 16.4964 9.22172 17.1323 9.69056 17.6011C10.1594 18.0699 10.7953 18.3333 11.4583 18.3333C12.1214 18.3333 12.7573 18.0699 13.2261 17.6011C13.6949 17.1323 13.9583 16.4964 13.9583 15.8333C13.9583 15.1703 13.6949 14.5344 13.2261 14.0656C12.7573 13.5967 12.1214 13.3333 11.4583 13.3333Z" fill="white"/>
</svg>
